<svg width="16" height="15" viewBox="0 0 16 15" fill="none" xmlns="http://www.w3.org/2000/svg">
<path d="M8.3991 3.68162C6.28396 3.68162 4.57788 5.38494 4.57788 7.49666C4.57788 9.60838 6.28396 11.3117 8.3991 11.3117C10.5142 11.3117 12.2203 9.60838 12.2203 7.49666C12.2203 5.38494 10.5142 3.68162 8.3991 3.68162ZM8.3991 9.97693C7.03224 9.97693 5.9148 8.86463 5.9148 7.49666C5.9148 6.12869 7.02891 5.01639 8.3991 5.01639C9.76928 5.01639 10.8834 6.12869 10.8834 7.49666C10.8834 8.86463 9.76596 9.97693 8.3991 9.97693V9.97693ZM13.2679 3.52557C13.2679 4.02029 12.8688 4.41541 12.3766 4.41541C11.8811 4.41541 11.4853 4.01697 11.4853 3.52557C11.4853 3.03416 11.8844 2.63572 12.3766 2.63572C12.8688 2.63572 13.2679 3.03416 13.2679 3.52557ZM15.7988 4.42869C15.7422 3.2367 15.4695 2.18084 14.5949 1.31092C13.7235 0.440997 12.666 0.168732 11.472 0.108966C10.2415 0.0392395 6.55334 0.0392395 5.32283 0.108966C4.13223 0.165411 3.07466 0.437677 2.20001 1.3076C1.32535 2.17752 1.05597 3.23338 0.996105 4.42537C0.926266 5.65389 0.926266 9.33611 0.996105 10.5646C1.05264 11.7566 1.32535 12.8125 2.20001 13.6824C3.07466 14.5523 4.12891 14.8246 5.32283 14.8844C6.55334 14.9541 10.2415 14.9541 11.472 14.8844C12.666 14.8279 13.7235 14.5556 14.5949 13.6824C15.4662 12.8125 15.7389 11.7566 15.7988 10.5646C15.8686 9.33611 15.8686 5.65721 15.7988 4.42869V4.42869ZM14.2091 11.8828C13.9497 12.5336 13.4475 13.0349 12.7923 13.2972C11.8113 13.6857 9.48327 13.5961 8.3991 13.5961C7.31492 13.5961 4.98361 13.6824 4.00586 13.2972C3.35402 13.0383 2.85184 12.5369 2.58911 11.8828C2.20001 10.9033 2.2898 8.57908 2.2898 7.49666C2.2898 6.41424 2.20333 4.0867 2.58911 3.11053C2.84852 2.45975 3.3507 1.95838 4.00586 1.69608C4.98694 1.3076 7.31492 1.39725 8.3991 1.39725C9.48327 1.39725 11.8146 1.31092 12.7923 1.69608C13.4442 1.95506 13.9464 2.45643 14.2091 3.11053C14.5982 4.09002 14.5084 6.41424 14.5084 7.49666C14.5084 8.57908 14.5982 10.9066 14.2091 11.8828Z" fill="black"/>
</svg>
