<svg width="139.000000" height="44.000000" viewBox="0 0 139 44" fill="none" xmlns="http://www.w3.org/2000/svg" xmlns:xlink="http://www.w3.org/1999/xlink">
	<desc>
			Created with Pixso.
	</desc>
	<defs/>
	<path id="Vector" d="M138.5 0.5L138.5 43.5L0.5 43.5L0.5 0.5L138.5 0.5Z" stroke="#FFFFFF" stroke-opacity="1.000000" stroke-width="1.000000" stroke-linejoin="round"/>
	<path id="Vector" d="M34.95 34.26L34.83 34.26C34.23 34.26 33.71 33.76 33.67 33.12C33.63 32.46 34.11 31.87 34.76 31.83C34.78 31.83 34.81 31.83 34.84 31.83C35.45 31.83 35.97 32.32 36.02 32.94C36.03 33.19 35.99 33.55 35.73 33.84L35.73 33.85L35.72 33.85C35.52 34.09 35.26 34.23 34.95 34.26ZM21.22 34.25C20.57 34.25 20.04 33.71 20.04 33.05C20.04 32.38 20.57 31.83 21.22 31.83C21.87 31.83 22.4 32.38 22.4 33.05C22.4 33.71 21.87 34.25 21.22 34.25Z" fill="#FFFFFF" fill-opacity="1.000000" fill-rule="nonzero"/>
	<path id="Vector" d="M34.87 33.26C34.92 33.25 34.94 33.23 34.96 33.21C34.96 33.2 34.97 33.19 34.98 33.18C35.01 33.14 35.02 33.05 35.02 33C35 32.9 34.91 32.83 34.84 32.83C34.83 32.83 34.83 32.83 34.83 32.83C34.75 32.83 34.66 32.94 34.67 33.06C34.68 33.17 34.76 33.26 34.83 33.26L34.87 33.26ZM21.21 33.25C21.31 33.25 21.39 33.16 21.39 33.04C21.39 32.93 21.31 32.83 21.21 32.83C21.12 32.83 21.03 32.93 21.03 33.04C21.03 33.16 21.12 33.25 21.21 33.25ZM35 35.26C34.95 35.26 34.88 35.26 34.83 35.26C33.7 35.26 32.75 34.35 32.67 33.19C32.59 31.99 33.49 30.91 34.69 30.83C34.74 30.83 34.79 30.83 34.84 30.83C35.98 30.83 36.94 31.73 37.01 32.88C37.05 33.49 36.87 34.06 36.49 34.5C36.1 34.95 35.57 35.21 35 35.26ZM21.21 35.25C20.01 35.25 19.03 34.27 19.03 33.04C19.03 31.82 20.01 30.83 21.21 30.83C22.42 30.83 23.39 31.82 23.39 33.04C23.39 34.27 22.42 35.25 21.21 35.25ZM34.19 28.39L22.13 28.39C21.69 28.39 21.31 28.09 21.2 27.67L17.27 13.24L14.52 13.24C13.99 13.24 13.56 12.8 13.56 12.26C13.56 11.73 13.99 11.29 14.52 11.29L18 11.29C18.43 11.29 18.81 11.58 18.92 12L22.85 26.43L33.55 26.43L37.11 18.13L25.25 18.13C24.72 18.13 24.29 17.69 24.29 17.15C24.29 16.61 24.72 16.17 25.25 16.17L38.58 16.17C38.9 16.17 39.21 16.34 39.39 16.61C39.56 16.89 39.59 17.23 39.46 17.54L35.08 27.8C34.91 28.16 34.58 28.39 34.19 28.39Z" fill="#FFFFFF" fill-opacity="1.000000" fill-rule="nonzero"/>
	<path id="Vector" d="M34.87 33.26C34.92 33.25 34.94 33.23 34.96 33.21C34.96 33.2 34.97 33.19 34.98 33.18C35.01 33.14 35.02 33.05 35.02 33C35 32.9 34.91 32.83 34.84 32.83C34.83 32.83 34.83 32.83 34.83 32.83C34.75 32.83 34.66 32.94 34.67 33.06C34.68 33.17 34.76 33.26 34.83 33.26L34.87 33.26ZM21.21 33.25C21.31 33.25 21.39 33.16 21.39 33.04C21.39 32.93 21.31 32.83 21.21 32.83C21.12 32.83 21.03 32.93 21.03 33.04C21.03 33.16 21.12 33.25 21.21 33.25ZM35 35.26C34.95 35.26 34.88 35.26 34.83 35.26C33.7 35.26 32.75 34.35 32.67 33.19C32.59 31.99 33.49 30.91 34.69 30.83C34.74 30.83 34.79 30.83 34.84 30.83C35.98 30.83 36.94 31.73 37.01 32.88C37.05 33.49 36.87 34.06 36.49 34.5C36.1 34.95 35.57 35.21 35 35.26ZM21.21 35.25C20.01 35.25 19.03 34.27 19.03 33.04C19.03 31.82 20.01 30.83 21.21 30.83C22.42 30.83 23.39 31.82 23.39 33.04C23.39 34.27 22.42 35.25 21.21 35.25ZM34.19 28.39L22.13 28.39C21.69 28.39 21.31 28.09 21.2 27.67L17.27 13.24L14.52 13.24C13.99 13.24 13.56 12.8 13.56 12.26C13.56 11.73 13.99 11.29 14.52 11.29L18 11.29C18.43 11.29 18.81 11.58 18.92 12L22.85 26.43L33.55 26.43L37.11 18.13L25.25 18.13C24.72 18.13 24.29 17.69 24.29 17.15C24.29 16.61 24.72 16.17 25.25 16.17L38.58 16.17C38.9 16.17 39.21 16.34 39.39 16.61C39.56 16.89 39.59 17.23 39.46 17.54L35.08 27.8C34.91 28.16 34.58 28.39 34.19 28.39Z" fill="#FFFFFF" fill-opacity="1.000000" fill-rule="nonzero"/>
	<path id="Add to Cart" d="M66.77 28.23L66.77 17.92L65.52 17.92L65.52 21.84Q65.25 21.56 64.92 21.36Q64.81 21.29 64.69 21.24Q64.23 21.01 63.57 21.01Q62.86 21.01 62.29 21.3Q62 21.44 61.76 21.64Q61.52 21.83 61.32 22.08Q60.93 22.57 60.72 23.25Q60.51 23.92 60.51 24.71Q60.51 25.59 60.7 26.27Q60.89 26.95 61.24 27.4Q61.49 27.73 61.82 27.94Q61.95 28.03 62.09 28.09Q62.59 28.33 63.2 28.33Q63.92 28.33 64.48 28.02Q64.51 28.01 64.54 27.99Q64.57 27.98 64.6 27.96Q65.14 27.63 65.58 27.11L65.69 27.97Q65.72 28.1 65.81 28.17Q65.89 28.23 66.02 28.23L66.77 28.23ZM74.61 28.23L74.61 17.92L73.36 17.92L73.36 21.84Q73.09 21.56 72.76 21.36Q72.65 21.29 72.53 21.24Q72.07 21.01 71.41 21.01Q70.7 21.01 70.13 21.3Q69.84 21.44 69.6 21.64Q69.36 21.83 69.16 22.08Q68.77 22.57 68.56 23.25Q68.35 23.92 68.35 24.71Q68.35 25.59 68.54 26.27Q68.73 26.95 69.08 27.4Q69.33 27.73 69.66 27.94Q69.79 28.03 69.93 28.09Q70.43 28.33 71.04 28.33Q71.76 28.33 72.32 28.02Q72.35 28.01 72.38 27.99Q72.41 27.98 72.44 27.96Q72.98 27.63 73.42 27.11L73.53 27.97Q73.56 28.1 73.65 28.17Q73.73 28.23 73.86 28.23L74.61 28.23ZM104.09 26.17Q104.05 26.16 104.01 26.16Q103.89 26.16 103.77 26.26Q103.51 26.5 103.25 26.67Q102.98 26.84 102.68 26.95Q102.38 27.07 102.01 27.12Q101.65 27.17 101.21 27.17Q100.55 27.17 99.96 26.96Q99.9 26.93 99.84 26.91Q99.52 26.78 99.25 26.59Q98.97 26.39 98.74 26.13Q98.27 25.62 98 24.89Q97.73 24.16 97.73 23.22Q97.73 22.29 97.99 21.56Q98.25 20.82 98.72 20.31Q98.94 20.07 99.2 19.88Q99.49 19.67 99.83 19.53Q100.47 19.26 101.25 19.26Q101.89 19.26 102.33 19.4Q102.78 19.53 103.07 19.7Q103.36 19.87 103.54 20.01Q103.73 20.15 103.85 20.15Q103.96 20.15 104.03 20.1Q104.07 20.08 104.1 20.04Q104.12 20.01 104.14 19.98L104.59 19.36Q104.45 19.23 104.31 19.12Q103.79 18.7 103.14 18.43Q102.33 18.08 101.25 18.08Q100.16 18.08 99.26 18.46Q98.6 18.73 98.08 19.17Q97.88 19.33 97.71 19.52Q97.69 19.54 97.67 19.56Q97.05 20.22 96.7 21.14Q96.35 22.08 96.35 23.22Q96.35 24.35 96.69 25.3Q97.03 26.24 97.65 26.92Q97.83 27.1 98.02 27.27Q98.52 27.7 99.16 27.97Q100.04 28.34 101.12 28.34Q102.37 28.34 103.25 27.94Q103.8 27.69 104.25 27.32Q104.51 27.09 104.74 26.83L104.2 26.25Q104.15 26.19 104.09 26.17ZM58.98 28.23L60.03 28.23L56.01 18.2L54.64 18.2L50.63 28.23L51.68 28.23Q51.83 28.23 51.94 28.16Q51.96 28.15 51.97 28.13Q52.09 28.04 52.14 27.91Q52.14 27.91 52.14 27.91L53.07 25.48L57.58 25.48L58.51 27.91Q58.56 28.01 58.63 28.09Q58.65 28.12 58.68 28.14Q58.79 28.23 58.98 28.23ZM81.16 27.98Q81.6 28.34 82.34 28.34Q82.55 28.34 82.76 28.31Q83.02 28.27 83.28 28.17Q83.73 28 84.05 27.7L83.69 27.1Q83.62 27 83.54 26.98Q83.53 26.98 83.52 26.98Q83.46 26.98 83.38 27.04Q83.31 27.09 83.21 27.15Q83.1 27.21 82.96 27.27Q82.82 27.32 82.62 27.32Q82.38 27.32 82.2 27.21Q82.12 27.17 82.06 27.1Q81.84 26.89 81.84 26.44L81.84 22.18L83.89 22.18L83.89 21.28L81.84 21.28L81.84 18.84L81.21 18.84Q81.11 18.84 81.04 18.88Q81.03 18.89 81.02 18.9Q81 18.92 80.99 18.93Q80.94 18.99 80.93 19.07L80.64 21.26L79.48 21.41L79.48 21.91Q79.48 22.04 79.54 22.11Q79.55 22.11 79.55 22.12Q79.58 22.14 79.6 22.15Q79.66 22.18 79.74 22.18L80.6 22.18L80.6 26.52Q80.6 27.38 81.03 27.85Q81.04 27.86 81.05 27.87Q81.1 27.93 81.16 27.98ZM119.07 27.98Q119.51 28.34 120.25 28.34Q120.47 28.34 120.67 28.31Q120.94 28.27 121.19 28.17Q121.65 28 121.97 27.7L121.6 27.1Q121.53 27 121.45 26.98Q121.44 26.98 121.43 26.98Q121.37 26.98 121.3 27.04Q121.22 27.09 121.12 27.15Q121.02 27.21 120.87 27.27Q120.73 27.32 120.53 27.32Q120.29 27.32 120.11 27.21Q120.04 27.17 119.97 27.1Q119.76 26.89 119.76 26.44L119.76 22.18L121.81 22.18L121.81 21.28L119.76 21.28L119.76 18.84L119.13 18.84Q119.02 18.84 118.95 18.88Q118.94 18.89 118.93 18.9Q118.91 18.92 118.9 18.93Q118.85 18.99 118.84 19.07L118.55 21.26L117.39 21.41L117.39 21.91Q117.39 22.04 117.46 22.11Q117.46 22.11 117.47 22.12Q117.49 22.14 117.51 22.15Q117.58 22.18 117.66 22.18L118.51 22.18L118.51 26.52Q118.51 27.38 118.94 27.85Q118.95 27.86 118.96 27.87Q119.02 27.93 119.07 27.98ZM55.62 20.42L57.2 24.5L53.45 24.5L55.03 20.43Q55.18 20.05 55.33 19.49Q55.4 19.76 55.47 20Q55.55 20.24 55.62 20.42ZM107.11 21.29Q106.43 21.57 105.84 22.14L106.06 22.54Q106.1 22.6 106.15 22.65Q106.18 22.68 106.22 22.71Q106.24 22.72 106.26 22.73Q106.34 22.77 106.44 22.77Q106.6 22.77 106.76 22.65Q106.93 22.54 107.15 22.39Q107.38 22.25 107.69 22.14Q108 22.02 108.47 22.02Q109 22.02 109.33 22.28Q109.43 22.35 109.51 22.44Q109.86 22.87 109.86 23.69L109.86 24.25Q108.65 24.27 107.82 24.47Q106.99 24.66 106.47 24.96Q105.95 25.26 105.72 25.65Q105.55 25.93 105.51 26.24Q105.49 26.35 105.49 26.46Q105.49 26.94 105.65 27.3Q105.79 27.61 106.02 27.83Q106.05 27.86 106.07 27.88Q106.09 27.89 106.1 27.9Q106.36 28.11 106.71 28.23Q107.07 28.34 107.49 28.34Q107.89 28.34 108.22 28.27Q108.56 28.2 108.85 28.06Q109.14 27.92 109.41 27.72Q109.68 27.52 109.96 27.26L110.1 27.94Q110.15 28.11 110.25 28.17Q110.35 28.23 110.53 28.23L111.08 28.23L111.08 23.69Q111.08 23.1 110.92 22.6Q110.76 22.1 110.45 21.76Q110.38 21.69 110.32 21.62Q110.04 21.37 109.67 21.21Q109.21 21.01 108.61 21.01Q107.79 21.01 107.11 21.29ZM114.99 21.42Q114.5 21.83 114.16 22.56L114.08 21.48Q114.05 21.29 113.97 21.22Q113.9 21.14 113.7 21.14L112.98 21.14L112.98 28.23L114.23 28.23L114.23 23.75Q114.37 23.39 114.53 23.1Q114.7 22.82 114.9 22.63Q115.02 22.52 115.15 22.44Q115.25 22.38 115.37 22.34Q115.63 22.24 115.97 22.24Q116.21 22.24 116.4 22.28Q116.58 22.32 116.68 22.32Q116.76 22.32 116.81 22.28Q116.87 22.24 116.89 22.15L116.98 21.22Q116.82 21.11 116.61 21.06Q116.41 21.01 116.19 21.01Q115.68 21.01 115.29 21.22Q115.13 21.31 114.99 21.42ZM89.54 21.29Q88.92 21.03 88.14 21.03Q87.35 21.03 86.72 21.29Q86.29 21.47 85.94 21.76Q85.79 21.88 85.66 22.02Q85.22 22.5 84.98 23.17Q84.75 23.85 84.75 24.68Q84.75 25.52 84.98 26.19Q85.22 26.87 85.66 27.34Q85.78 27.47 85.91 27.59Q86.27 27.89 86.72 28.07Q87.35 28.33 88.14 28.33Q88.92 28.33 89.54 28.07Q89.97 27.89 90.32 27.6Q90.47 27.48 90.6 27.34Q91.04 26.87 91.27 26.19Q91.51 25.52 91.51 24.68Q91.51 23.85 91.27 23.17Q91.04 22.5 90.6 22.02Q90.46 21.87 90.3 21.74Q89.96 21.46 89.54 21.29ZM64.76 22.17Q65.17 22.36 65.52 22.83L65.52 26.25Q65.14 26.76 64.68 27.04Q64.66 27.05 64.63 27.07Q64.19 27.32 63.6 27.32Q63.17 27.32 62.84 27.17Q62.76 27.14 62.69 27.1Q62.45 26.95 62.27 26.71Q62.04 26.39 61.92 25.89Q61.8 25.4 61.8 24.71Q61.8 23.4 62.33 22.69Q62.53 22.43 62.78 22.27Q63.23 21.98 63.85 21.98Q64.36 21.98 64.76 22.17ZM72.6 22.17Q73.01 22.36 73.36 22.83L73.36 26.25Q72.98 26.76 72.52 27.04Q72.5 27.05 72.47 27.07Q72.03 27.32 71.44 27.32Q71.01 27.32 70.68 27.17Q70.6 27.14 70.53 27.1Q70.29 26.95 70.11 26.71Q69.88 26.39 69.76 25.89Q69.64 25.4 69.64 24.71Q69.64 23.4 70.17 22.69Q70.37 22.43 70.62 22.27Q71.07 21.98 71.69 21.98Q72.2 21.98 72.6 22.17ZM89.37 26.99Q88.89 27.35 88.14 27.35Q87.36 27.35 86.87 26.98Q86.69 26.84 86.55 26.65Q86.03 25.95 86.03 24.69Q86.03 24.06 86.16 23.56Q86.29 23.06 86.55 22.72Q86.68 22.55 86.83 22.42Q87 22.28 87.21 22.19Q87.61 22.01 88.14 22.01Q88.88 22.01 89.36 22.36Q89.55 22.51 89.7 22.71Q90.22 23.42 90.22 24.69Q90.22 25.95 89.7 26.65Q89.56 26.85 89.37 26.99ZM108.4 25.17Q109 25.06 109.86 25.04L109.86 26.51Q109.66 26.73 109.43 26.91Q109.22 27.08 108.97 27.21Q108.73 27.33 108.46 27.4Q108.19 27.47 107.86 27.47Q107.61 27.47 107.4 27.41Q107.19 27.35 107.04 27.23Q107.03 27.22 107.03 27.22Q107.01 27.21 107 27.19Q106.86 27.07 106.78 26.89Q106.69 26.68 106.69 26.4Q106.69 26.25 106.73 26.11Q106.78 25.98 106.86 25.87Q107.03 25.63 107.41 25.46Q107.79 25.28 108.4 25.17Z" fill="#FFFFFF" fill-opacity="1.000000" fill-rule="evenodd"/>
</svg>
